<?xml version="1.0" encoding="UTF-8"?>
<svg id="Layer_1" xmlns="http://www.w3.org/2000/svg" version="1.1" xmlns:xlink="http://www.w3.org/1999/xlink" viewBox="0 0 596 596">
  <!-- Generator: Adobe Illustrator 30.1.0, SVG Export Plug-In . SVG Version: 2.1.1 Build 136)  -->
  <defs>
    <style>
      .st0 {
        fill: url(#linear-gradient2);
      }

      .st1 {
        fill: #fff;
      }

      .st2 {
        fill: url(#linear-gradient1);
      }

      .st3 {
        fill: url(#linear-gradient4);
      }

      .st4 {
        fill: url(#linear-gradient5);
      }

      .st5 {
        fill: url(#linear-gradient3);
      }

      .st6 {
        fill: url(#linear-gradient);
      }
    </style>
    <linearGradient id="linear-gradient" x1="276.29" y1=".59" x2="413.37" y2="519.34" gradientUnits="userSpaceOnUse">
      <stop offset="0" stop-color="#e27102"/>
      <stop offset="1" stop-color="#ff00cd"/>
    </linearGradient>
    <linearGradient id="linear-gradient1" x1="249.7" y1="747.08" x2="411.35" y2="1358.83" gradientTransform="translate(0 -756.47)" gradientUnits="userSpaceOnUse">
      <stop offset="0" stop-color="#e27102"/>
      <stop offset="1" stop-color="#ff00cd"/>
    </linearGradient>
    <linearGradient id="linear-gradient2" x1="225.34" y1="753.91" x2="388.89" y2="1372.83" gradientTransform="translate(0 -756.47)" gradientUnits="userSpaceOnUse">
      <stop offset="0" stop-color="#e27102"/>
      <stop offset="1" stop-color="#ff00cd"/>
    </linearGradient>
    <linearGradient id="linear-gradient3" x1="200.75" y1="758.84" x2="365.62" y2="1382.75" gradientTransform="translate(0 -756.47)" gradientUnits="userSpaceOnUse">
      <stop offset="0" stop-color="#e27102"/>
      <stop offset="1" stop-color="#ff00cd"/>
    </linearGradient>
    <linearGradient id="linear-gradient4" x1="176.01" y1="764.25" x2="341.85" y2="1391.82" gradientTransform="translate(0 -756.47)" gradientUnits="userSpaceOnUse">
      <stop offset="0" stop-color="#e27102"/>
      <stop offset="1" stop-color="#ff00cd"/>
    </linearGradient>
    <linearGradient id="linear-gradient5" x1="151.34" y1="769.32" x2="317.92" y2="1399.68" gradientTransform="translate(0 -756.47)" gradientUnits="userSpaceOnUse">
      <stop offset="0" stop-color="#e27102"/>
      <stop offset="1" stop-color="#ff00cd"/>
    </linearGradient>
  </defs>
  <path class="st6" d="M329.06,66.16s-.04-.09-.06-.13l-18.84-37.67c-5.22-10.45-20.13-10.45-25.35,0l-16.55,33.09-8.52,16.64c-1.98,3.86.83,8.45,5.17,8.45h65.1c4.34,0,7.15-4.6,5.17-8.46l-6.12-11.92Z"/>
  <path class="st2" d="M367.14,185.54h-139.36c-10.54,0-17.39-11.09-12.68-20.51l27.6-55.19c2.4-4.8,7.31-7.83,12.68-7.83h84.17c5.37,0,10.28,3.03,12.68,7.83l27.6,55.19c4.71,9.42-2.14,20.51-12.68,20.51h0Z"/>
  <path class="st0" d="M417.98,284.54h-241.05c-10.54,0-17.39-11.09-12.68-20.51l27.6-55.19c2.4-4.8,7.31-7.83,12.68-7.83h185.86c5.37,0,10.28,3.03,12.68,7.83l27.6,55.19c4.71,9.42-2.14,20.51-12.68,20.51h-.01Z"/>
  <path class="st5" d="M468.84,382.54H126.09c-10.54,0-17.39-11.09-12.68-20.51l27.6-55.19c2.4-4.8,7.31-7.83,12.68-7.83h287.55c5.37,0,10.28,3.03,12.68,7.83l27.6,55.19c4.71,9.42-2.14,20.51-12.68,20.51Z"/>
  <path class="st3" d="M519.68,481.54H75.24c-10.54,0-17.39-11.09-12.68-20.51l27.6-55.19c2.4-4.8,7.31-7.83,12.68-7.83h389.24c5.37,0,10.28,3.03,12.68,7.83l27.6,55.19c4.71,9.42-2.14,20.51-12.68,20.51h0Z"/>
  <path class="st4" d="M570.69,580.55H24.55c-10.54,0-17.39-11.09-12.68-20.51l27.61-55.2c2.4-4.8,7.31-7.83,12.68-7.83h490.93c5.37,0,10.28,3.03,12.68,7.84l27.6,55.2c4.71,9.42-2.14,20.51-12.68,20.51h0Z"/>
  <g>
    <path class="st1" d="M298.24,551.17c-2.13,0-3.99-.35-5.58-1.06s-2.9-1.66-3.93-2.86-1.8-2.52-2.3-3.98c-.5-1.46-.75-2.92-.75-4.37v-.72c0-1.5.25-2.97.75-4.41s1.26-2.74,2.27-3.92c1.01-1.18,2.27-2.11,3.79-2.81,1.51-.7,3.26-1.04,5.24-1.04,2.15,0,4.06.4,5.71,1.19s2.98,1.89,3.98,3.3c1,1.4,1.58,3.03,1.73,4.88h-5.35c-.13-.87-.47-1.63-1.03-2.28s-1.26-1.16-2.12-1.53c-.86-.37-1.83-.56-2.92-.56s-1.97.19-2.79.56-1.51.89-2.09,1.57c-.58.67-1.01,1.47-1.31,2.4-.29.93-.44,1.94-.44,3.05s.16,2.2.47,3.15c.32.95.78,1.76,1.39,2.45.61.69,1.37,1.21,2.27,1.58s1.91.55,3.02.55c1.48,0,2.76-.3,3.85-.91s1.87-1.41,2.35-2.42l-.65,3.66v-5.68h4.93v5.09c-1.02,1.65-2.43,2.92-4.23,3.8-1.8.88-3.88,1.32-6.25,1.32h-.01ZM297.55,542v-3.85h13.12v3.85h-13.12Z"/>
    <path class="st1" d="M287.68,452.03v-24.02h5.35v24.02h-5.35ZM291.6,444.39v-4.21h5.88c.78,0,1.46-.16,2.04-.47.58-.32,1.02-.76,1.34-1.34s.47-1.25.47-2.01-.16-1.43-.47-2.01c-.32-.58-.76-1.02-1.34-1.34s-1.26-.47-2.04-.47h-5.88v-4.54h5.45c1.98,0,3.7.3,5.16.9s2.58,1.49,3.36,2.66c.78,1.18,1.18,2.66,1.18,4.44v.52c0,1.76-.4,3.23-1.19,4.39s-1.91,2.03-3.36,2.61c-1.45.58-3.16.87-5.14.87h-5.46ZM302.14,452.03l-6.98-10.25h5.88l7.31,10.25h-6.21Z"/>
    <path class="st1" d="M297.38,353.17c-2.15,0-4.03-.37-5.63-1.13-1.6-.75-2.92-1.74-3.97-2.97s-1.82-2.56-2.33-4c-.51-1.44-.77-2.82-.77-4.15v-.72c0-1.48.27-2.94.8-4.39s1.33-2.76,2.4-3.93c1.07-1.18,2.39-2.12,3.98-2.82,1.59-.71,3.43-1.06,5.52-1.06s3.93.35,5.52,1.06,2.92,1.65,3.98,2.82,1.87,2.49,2.42,3.93c.54,1.45.82,2.91.82,4.39v.72c0,1.33-.26,2.71-.78,4.15s-1.31,2.77-2.35,4-2.37,2.22-3.97,2.97-3.48,1.13-5.63,1.13h-.01ZM297.38,348.18c1.13,0,2.15-.2,3.05-.59.9-.39,1.68-.94,2.32-1.63.64-.7,1.13-1.5,1.45-2.42.33-.91.49-1.89.49-2.94,0-1.11-.17-2.13-.51-3.05-.34-.92-.83-1.73-1.47-2.42s-1.41-1.21-2.3-1.58c-.89-.37-1.9-.55-3.04-.55s-2.14.19-3.04.55c-.89.37-1.66.9-2.3,1.58-.64.69-1.13,1.49-1.45,2.42-.33.93-.49,1.94-.49,3.05,0,1.04.16,2.02.49,2.94.33.91.81,1.72,1.45,2.42s1.41,1.24,2.3,1.63c.89.39,1.9.59,3.04.59h.01Z"/>
    <path class="st1" d="M286.55,253.83l-5.87-23.83h5.52l4.6,20.24-1.14-.75h2.97l-1.27.75,3.56-19.35h4.44l-4.67,22.94h-8.14,0ZM300.75,253.83l-5.03-22.94h4.67l4.11,19.35-1.24-.75h2.84l-1.08.75,4.01-20.24h5.22l-5.22,23.83h-8.29.01,0Z"/>
    <path class="st1" d="M286.68,136.67v-4.67h18.77v4.67h-18.77ZM293.37,155.83v-19.81h5.35v19.81h-5.35Z"/>
    <path class="st1" d="M287.68,70.61v-23.83h5.35v23.83h-5.35ZM292.09,60.98v-4.7h11.95v4.7h-11.95ZM303.09,70.61v-23.83h5.35v23.83h-5.35Z"/>
  </g>
</svg>