<svg width="42" height="42" viewBox="0 0 42 42" fill="none" xmlns="http://www.w3.org/2000/svg">
<path d="M21 8.75C20.5359 8.75 20.0908 8.56563 19.7626 8.23744C19.4344 7.90925 19.25 7.46413 19.25 7C19.25 6.53587 19.4344 6.09075 19.7626 5.76256C20.0908 5.43437 20.5359 5.25 21 5.25C21.4641 5.25 21.9092 5.43437 22.2374 5.76256C22.5656 6.09075 22.75 6.53587 22.75 7C22.75 7.46413 22.5656 7.90925 22.2374 8.23744C21.9092 8.56563 21.4641 8.75 21 8.75ZM21 8.75V10.5M21 10.5C15.1673 12.25 12.25 16.3327 12.25 22.75C12.25 25.0792 13.7077 28 16.625 28H25.6813C28.3938 27.7917 29.75 24.997 29.75 22.75C29.75 16.4973 26.8327 12.25 21 10.5ZM26.25 14L21 19.25M14 28L11.4677 29.267C11.1771 29.4122 10.9326 29.6355 10.7617 29.9118C10.5908 30.1881 10.5002 30.5066 10.5 30.8315V35H31.5V30.8315C31.4998 30.5066 31.4092 30.1881 31.2383 29.9118C31.0674 29.6355 30.8229 29.4122 30.5323 29.267L28 28H14Z" stroke="white" stroke-width="2.625" stroke-linecap="round" stroke-linejoin="round"/>
</svg>
