<svg width="42" height="42" viewBox="0 0 42 42" fill="none" xmlns="http://www.w3.org/2000/svg">
<path d="M15.75 33.25V22.75C15.75 22.2859 15.5656 21.8408 15.2374 21.5126C14.9092 21.1844 14.4641 21 14 21H7C6.53587 21 6.09075 21.1844 5.76256 21.5126C5.43437 21.8408 5.25 22.2859 5.25 22.75V33.25C5.25 33.7141 5.43437 34.1592 5.76256 34.4874C6.09075 34.8156 6.53587 35 7 35M15.75 33.25C15.75 33.7141 15.5656 34.1592 15.2374 34.4874C14.9092 34.8156 14.4641 35 14 35H7M15.75 33.25C15.75 33.7141 15.9344 34.1592 16.2626 34.4874C16.5908 34.8156 17.0359 35 17.5 35H24.5C24.9641 35 25.4092 34.8156 25.7374 34.4874C26.0656 34.1592 26.25 33.7141 26.25 33.25M15.75 33.25V15.75C15.75 15.2859 15.9344 14.8408 16.2626 14.5126C16.5908 14.1844 17.0359 14 17.5 14H24.5C24.9641 14 25.4092 14.1844 25.7374 14.5126C26.0656 14.8408 26.25 15.2859 26.25 15.75V33.25M7 35H31.5M26.25 33.25C26.25 33.7141 26.4344 34.1592 26.7626 34.4874C27.0908 34.8156 27.5359 35 28 35H35C35.4641 35 35.9092 34.8156 36.2374 34.4874C36.5656 34.1592 36.75 33.7141 36.75 33.25V8.75C36.75 8.28587 36.5656 7.84075 36.2374 7.51256C35.9092 7.18437 35.4641 7 35 7H28C27.5359 7 27.0908 7.18437 26.7626 7.51256C26.4344 7.84075 26.25 8.28587 26.25 8.75V33.25Z" stroke="white" stroke-width="2.625" stroke-linecap="round" stroke-linejoin="round"/>
</svg>
