<svg width="42" height="42" viewBox="0 0 42 42" fill="none" xmlns="http://www.w3.org/2000/svg">
<path d="M17.4998 5.60058C14.7622 6.2352 12.2444 7.59068 10.2073 9.52642C8.17022 11.4622 6.68815 13.9077 5.9148 16.6093C5.14145 19.3109 5.105 22.1702 5.80921 24.8906C6.51342 27.6111 7.93266 30.0936 9.91971 32.0806C11.9068 34.0677 14.3893 35.4869 17.1097 36.1911C19.8301 36.8953 22.6895 36.8589 25.3911 36.0855C28.0927 35.3122 30.5382 33.8301 32.4739 31.793C34.4097 29.756 35.7651 27.2381 36.3997 24.5006C36.3997 24.0365 36.2154 23.5913 35.8872 23.2631C35.559 22.935 35.1139 22.7506 34.6497 22.7506H22.7498C21.8215 22.7506 20.9313 22.3818 20.2749 21.7255C19.6185 21.0691 19.2498 20.1788 19.2498 19.2506V7.00058C19.228 6.79325 19.1653 6.5923 19.0653 6.40938C18.9653 6.22645 18.83 6.0652 18.6672 5.93498C18.5044 5.80475 18.3174 5.70813 18.117 5.65073C17.9166 5.59333 17.7068 5.57628 17.4998 5.60058Z" stroke="white" stroke-width="2.625" stroke-linecap="round" stroke-linejoin="round"/>
<path d="M26.2498 6.12476C28.4718 6.90715 30.49 8.17803 32.1558 9.84378C33.8215 11.5095 35.0924 13.5277 35.8748 15.7498H27.9998C27.5357 15.7498 27.0906 15.5654 26.7624 15.2372C26.4342 14.909 26.2498 14.4639 26.2498 13.9998V6.12476Z" stroke="white" stroke-width="2.625" stroke-linecap="round" stroke-linejoin="round"/>
</svg>
