<svg width="42" height="42" viewBox="0 0 42 42" fill="none" xmlns="http://www.w3.org/2000/svg">
<path d="M29.75 29.75C29.75 28.8217 30.1187 27.9315 30.7751 27.2751C31.4315 26.6187 32.3217 26.25 33.25 26.25C34.1783 26.25 35.0685 26.6187 35.7249 27.2751C36.3813 27.9315 36.75 28.8217 36.75 29.75C36.75 30.6783 36.3813 31.5685 35.7249 32.2249C35.0685 32.8813 34.1783 33.25 33.25 33.25C32.3217 33.25 31.4315 32.8813 30.7751 32.2249C30.1187 31.5685 29.75 30.6783 29.75 29.75ZM29.75 29.75L15.75 31.5M15.75 31.5C15.75 30.1076 15.1969 28.7723 14.2123 27.7877C13.2277 26.8031 11.8924 26.25 10.5 26.25C9.10761 26.25 7.77225 26.8031 6.78769 27.7877C5.80312 28.7723 5.25 30.1076 5.25 31.5C5.25 32.8924 5.80312 34.2277 6.78769 35.2123C7.77225 36.1969 9.10761 36.75 10.5 36.75C11.8924 36.75 13.2277 36.1969 14.2123 35.2123C15.1969 34.2277 15.75 32.8924 15.75 31.5ZM26.25 12.25L17.5 14.875M30.625 27.125L16.9575 17.7275M17.5 15.75C17.5 14.8217 17.1313 13.9315 16.4749 13.2751C15.8185 12.6187 14.9283 12.25 14 12.25C13.0717 12.25 12.1815 12.6187 11.5251 13.2751C10.8687 13.9315 10.5 14.8217 10.5 15.75C10.5 16.6783 10.8687 17.5685 11.5251 18.2249C12.1815 18.8813 13.0717 19.25 14 19.25C14.9283 19.25 15.8185 18.8813 16.4749 18.2249C17.1313 17.5685 17.5 16.6783 17.5 15.75ZM36.75 10.5C36.75 9.10761 36.1969 7.77225 35.2123 6.78769C34.2277 5.80312 32.8924 5.25 31.5 5.25C30.1076 5.25 28.7723 5.80312 27.7877 6.78769C26.8031 7.77225 26.25 9.10761 26.25 10.5C26.25 11.8924 26.8031 13.2277 27.7877 14.2123C28.7723 15.1969 30.1076 15.75 31.5 15.75C32.8924 15.75 34.2277 15.1969 35.2123 14.2123C36.1969 13.2277 36.75 11.8924 36.75 10.5Z" stroke="white" stroke-width="2.625" stroke-linecap="round" stroke-linejoin="round"/>
</svg>
