<svg width="42" height="42" viewBox="0 0 42 42" fill="none" xmlns="http://www.w3.org/2000/svg">
<path d="M7 28L17.5 15.75L26.25 24.5L35 14M24.5 24.5C24.5 24.9641 24.6844 25.4092 25.0126 25.7374C25.3408 26.0656 25.7859 26.25 26.25 26.25C26.7141 26.25 27.1592 26.0656 27.4874 25.7374C27.8156 25.4092 28 24.9641 28 24.5C28 24.0359 27.8156 23.5908 27.4874 23.2626C27.1592 22.9344 26.7141 22.75 26.25 22.75C25.7859 22.75 25.3408 22.9344 25.0126 23.2626C24.6844 23.5908 24.5 24.0359 24.5 24.5ZM15.75 15.75C15.75 16.2141 15.9344 16.6592 16.2626 16.9874C16.5908 17.3156 17.0359 17.5 17.5 17.5C17.9641 17.5 18.4092 17.3156 18.7374 16.9874C19.0656 16.6592 19.25 16.2141 19.25 15.75C19.25 15.2859 19.0656 14.8408 18.7374 14.5126C18.4092 14.1844 17.9641 14 17.5 14C17.0359 14 16.5908 14.1844 16.2626 14.5126C15.9344 14.8408 15.75 15.2859 15.75 15.75ZM5.25 28C5.25 28.4641 5.43437 28.9092 5.76256 29.2374C6.09075 29.5656 6.53587 29.75 7 29.75C7.46413 29.75 7.90925 29.5656 8.23744 29.2374C8.56563 28.9092 8.75 28.4641 8.75 28C8.75 27.5359 8.56563 27.0908 8.23744 26.7626C7.90925 26.4344 7.46413 26.25 7 26.25C6.53587 26.25 6.09075 26.4344 5.76256 26.7626C5.43437 27.0908 5.25 27.5359 5.25 28ZM33.25 14C33.25 14.4641 33.4344 14.9092 33.7626 15.2374C34.0908 15.5656 34.5359 15.75 35 15.75C35.4641 15.75 35.9092 15.5656 36.2374 15.2374C36.5656 14.9092 36.75 14.4641 36.75 14C36.75 13.5359 36.5656 13.0908 36.2374 12.7626C35.9092 12.4344 35.4641 12.25 35 12.25C34.5359 12.25 34.0908 12.4344 33.7626 12.7626C33.4344 13.0908 33.25 13.5359 33.25 14Z" stroke="#F5F5F4" stroke-width="2.625" stroke-linecap="round" stroke-linejoin="round"/>
</svg>
