<svg width="42" height="42" viewBox="0 0 42 42" fill="none" xmlns="http://www.w3.org/2000/svg">
<path d="M7 10.5C7 13.3997 13.2685 15.75 21 15.75C28.7315 15.75 35 13.3997 35 10.5M7 10.5C7 7.60025 13.2685 5.25 21 5.25C28.7315 5.25 35 7.60025 35 10.5M7 10.5V21M35 10.5V21M7 21C7 23.8997 13.2685 26.25 21 26.25C22.498 26.25 23.94 26.1625 25.2945 25.998M7 21V31.5C7 34.3997 13.2685 36.75 21 36.75C21.2993 36.75 21.5968 36.7465 21.8925 36.7395M33.25 38.5V28M33.25 28L38.5 33.25M33.25 28L28 33.25" stroke="#F5F5F4" stroke-width="2.5" stroke-linecap="round" stroke-linejoin="round"/>
</svg>
