<?xml version="1.0" encoding="UTF-8"?>
<svg xmlns="http://www.w3.org/2000/svg" viewBox="0 0 480 130" width="960" height="260">
  <style>
    @import url('https://fonts.googleapis.com/css2?family=Anybody:wght@400;500;600;700;800&amp;family=Source+Serif+4:opsz,wght@8..60,300;8..60,400;8..60,600;8..60,700&amp;family=IBM+Plex+Mono:wght@400;500;600&amp;family=IBM+Plex+Sans+Arabic:wght@400;500;600;700&amp;display=swap');
  </style>
  <defs>
    <filter id="sf" x="-5%" y="-5%" width="110%" height="110%">
      <feTurbulence type="fractalNoise" baseFrequency="0.55" numOctaves="3" seed="7" result="noise"/>
      <feColorMatrix type="saturate" values="0" in="noise" result="grayNoise"/>
      <feComponentTransfer in="grayNoise" result="threshold">
        <feFuncA type="discrete" tableValues="0 0 0 1 1 1 1"/>
      </feComponentTransfer>
      <feComposite operator="in" in="SourceGraphic" in2="threshold"/>
    </filter>
  </defs>
  <rect width="480" height="130" fill="#1C1917"/>
  <rect x="10" y="8" width="460" height="114" rx="5" fill="none" stroke="#FAF8F4" stroke-width="1.3"/>
  <line x1="340" y1="13.0" x2="340" y2="15.0" stroke="#FAF8F4" stroke-width="0.7" opacity="0.3"/><line x1="340" y1="17.2" x2="340" y2="19.2" stroke="#FAF8F4" stroke-width="0.7" opacity="0.3"/><line x1="340" y1="21.4" x2="340" y2="23.4" stroke="#FAF8F4" stroke-width="0.7" opacity="0.3"/><line x1="340" y1="25.6" x2="340" y2="27.6" stroke="#FAF8F4" stroke-width="0.7" opacity="0.3"/><line x1="340" y1="29.8" x2="340" y2="31.8" stroke="#FAF8F4" stroke-width="0.7" opacity="0.3"/><line x1="340" y1="34.0" x2="340" y2="36.0" stroke="#FAF8F4" stroke-width="0.7" opacity="0.3"/><line x1="340" y1="38.2" x2="340" y2="40.2" stroke="#FAF8F4" stroke-width="0.7" opacity="0.3"/><line x1="340" y1="42.400000000000006" x2="340" y2="44.400000000000006" stroke="#FAF8F4" stroke-width="0.7" opacity="0.3"/><line x1="340" y1="46.6" x2="340" y2="48.6" stroke="#FAF8F4" stroke-width="0.7" opacity="0.3"/><line x1="340" y1="50.800000000000004" x2="340" y2="52.800000000000004" stroke="#FAF8F4" stroke-width="0.7" opacity="0.3"/><line x1="340" y1="55.0" x2="340" y2="57.0" stroke="#FAF8F4" stroke-width="0.7" opacity="0.3"/><line x1="340" y1="59.2" x2="340" y2="61.2" stroke="#FAF8F4" stroke-width="0.7" opacity="0.3"/><line x1="340" y1="63.400000000000006" x2="340" y2="65.4" stroke="#FAF8F4" stroke-width="0.7" opacity="0.3"/><line x1="340" y1="67.6" x2="340" y2="69.6" stroke="#FAF8F4" stroke-width="0.7" opacity="0.3"/><line x1="340" y1="71.80000000000001" x2="340" y2="73.80000000000001" stroke="#FAF8F4" stroke-width="0.7" opacity="0.3"/><line x1="340" y1="76.0" x2="340" y2="78.0" stroke="#FAF8F4" stroke-width="0.7" opacity="0.3"/><line x1="340" y1="80.2" x2="340" y2="82.2" stroke="#FAF8F4" stroke-width="0.7" opacity="0.3"/><line x1="340" y1="84.4" x2="340" y2="86.4" stroke="#FAF8F4" stroke-width="0.7" opacity="0.3"/><line x1="340" y1="88.60000000000001" x2="340" y2="90.60000000000001" stroke="#FAF8F4" stroke-width="0.7" opacity="0.3"/><line x1="340" y1="92.8" x2="340" y2="94.8" stroke="#FAF8F4" stroke-width="0.7" opacity="0.3"/><line x1="340" y1="97.0" x2="340" y2="99.0" stroke="#FAF8F4" stroke-width="0.7" opacity="0.3"/><line x1="340" y1="101.2" x2="340" y2="103.2" stroke="#FAF8F4" stroke-width="0.7" opacity="0.3"/><line x1="340" y1="105.4" x2="340" y2="107.4" stroke="#FAF8F4" stroke-width="0.7" opacity="0.3"/><line x1="340" y1="109.60000000000001" x2="340" y2="111.60000000000001" stroke="#FAF8F4" stroke-width="0.7" opacity="0.3"/><line x1="340" y1="113.80000000000001" x2="340" y2="115.80000000000001" stroke="#FAF8F4" stroke-width="0.7" opacity="0.3"/><line x1="340" y1="118.0" x2="340" y2="120.0" stroke="#FAF8F4" stroke-width="0.7" opacity="0.3"/>
  <circle cx="340" cy="8" r="6" fill="#1C1917" stroke="#FAF8F4" stroke-width="1.3"/>
  <circle cx="340" cy="122" r="6" fill="#1C1917" stroke="#FAF8F4" stroke-width="1.3"/>
  <text x="34" y="62" font-family="Anybody, sans-serif" font-size="46" font-weight="800" fill="#FAF8F4" letter-spacing="-1">YALLA</text>
  <g transform="translate(185, 44) rotate(-5)">
    <rect x="-34" y="-14" width="68" height="28" rx="2.5" fill="none" stroke="#4A7BA8" stroke-width="2.2" filter="url(#sf)"/>
    <text x="0" y="5.5" text-anchor="middle" font-family="IBM Plex Mono, monospace" font-size="17" font-weight="600" fill="#4A7BA8" letter-spacing="4" filter="url(#sf)">LDN</text>
  </g>
  <rect x="34" y="72" width="44" height="2.5" rx="1.25" fill="#C8322B"/>
  <rect x="82" y="72" width="44" height="2.5" rx="1.25" fill="#C49A2A"/>
  <rect x="130" y="72" width="44" height="2.5" rx="1.25" fill="#3B7EA1"/>
  <line x1="34" y1="84" x2="320" y2="84" stroke="#3D3835" stroke-width="0.4"/>
  <text x="34" y="96" font-family="IBM Plex Mono, monospace" font-size="7" font-weight="500" fill="#78716C" letter-spacing="2">GATE</text>
  <text x="34" y="114" font-family="Anybody, sans-serif" font-size="16" font-weight="700" fill="#FAF8F4">Y</text>
  <text x="100" y="96" font-family="IBM Plex Mono, monospace" font-size="7" font-weight="500" fill="#78716C" letter-spacing="2">CLASS</text>
  <text x="100" y="114" font-family="Anybody, sans-serif" font-size="16" font-weight="700" fill="#FAF8F4">1st</text>
  <text x="180" y="96" font-family="IBM Plex Mono, monospace" font-size="7" font-weight="500" fill="#78716C" letter-spacing="2">TO</text>
  <text x="180" y="114" font-family="Source Serif 4, serif" font-size="14" font-weight="300" fill="#78716C" letter-spacing="5">LONDON</text>
  <text x="400" y="56" text-anchor="middle" font-family="IBM Plex Sans Arabic, sans-serif" direction="rtl" font-size="30" font-weight="600" fill="#FAF8F4">يلّا</text>
  <text x="400" y="82" text-anchor="middle" font-family="IBM Plex Sans Arabic, sans-serif" direction="rtl" font-size="18" font-weight="400" fill="#78716C">لندن</text>
  <g transform="translate(400, 64) rotate(-4)">
    <rect x="-22" y="-7" width="44" height="14" rx="1.5" fill="none" stroke="#4A7BA8" stroke-width="1.2" filter="url(#sf)" opacity="0.45"/>
    <text x="0" y="2.5" text-anchor="middle" font-family="IBM Plex Mono, monospace" font-size="8" font-weight="600" fill="#4A7BA8" letter-spacing="2" filter="url(#sf)" opacity="0.45">LDN</text>
  </g>
  <rect x="382" y="108" width="12" height="2" rx="1.0" fill="#C8322B"/>
  <rect x="396" y="108" width="12" height="2" rx="1.0" fill="#C49A2A"/>
  <rect x="410" y="108" width="12" height="2" rx="1.0" fill="#3B7EA1"/>
</svg>