<svg xmlns="http://www.w3.org/2000/svg" viewBox="0 0 540 90" role="img" aria-label="Zenitha · Luxury">
  <rect width="540" height="90" fill="#0A0A0A"/>
  <!-- Diamond mark -->
  <polygon points="26,0 52,26 26,52 0,26" fill="none" stroke="#C4A96C" stroke-width="1.04"/>
  <polygon points="26,15.6 41.6,26 26,36.4 10.4,26" fill="none" stroke="#C4A96C" stroke-width="0.78" opacity="0.4"/>
  <polygon points="26,4.68 29.12,22.88 26,15.08 22.88,22.88" fill="#C4A96C"/>
  <polygon points="47.32,26 29.12,29.12 36.92,26 29.12,22.88" fill="#C4A96C" opacity="0.6"/>
  <polygon points="26,47.32 22.88,29.12 26,36.92 29.12,29.12" fill="#C4A96C" opacity="0.6"/>
  <polygon points="4.68,26 22.88,22.88 15.08,26 22.88,29.12" fill="#C4A96C" opacity="0.6"/>
  <circle cx="26" cy="26" r="1.82" fill="#C4A96C"/>
  <!-- Divider -->
  <line x1="66" y1="18" x2="66" y2="72" stroke="#C4A96C" stroke-width="0.7" opacity="0.35"/>
  <!-- Wordmark -->
  <text x="80" y="42" font-family="'Cormorant Garamond', 'Playfair Display', Georgia, serif" font-weight="600" font-size="30" fill="#FDFCF9" letter-spacing="0.08em">ZENITHA</text>
  <text x="81" y="62" font-family="'DM Sans', 'Helvetica Neue', Arial, sans-serif" font-weight="300" font-size="9" fill="#C4A96C" letter-spacing="0.55em">· LUXURY ·</text>
  <rect x="80" y="71.2" width="80" height="0.8" fill="#C4A96C" opacity="0.8" rx="0.4"/>
  <rect x="163.4" y="71.2" width="34" height="0.8" fill="#C4A96C" opacity="0.4" rx="0.4"/>
  <rect x="200.6" y="71.2" width="74" height="0.8" fill="#C4A96C" opacity="0.2" rx="0.4"/>
</svg>
